<?xml version="1.0" standalone="no"?>
<!DOCTYPE svg PUBLIC "-//W3C//DTD SVG 20010904//EN"
 "http://www.w3.org/TR/2001/REC-SVG-20010904/DTD/svg10.dtd">
<svg version="1.0" xmlns="http://www.w3.org/2000/svg"
 width="100.000000pt" height="100.000000pt" viewBox="0 0 100.000000 100.000000"
 preserveAspectRatio="xMidYMid meet">
<metadata>
Created by potrace 1.14, written by Peter Selinger 2001-2017
</metadata>
<g transform="translate(0.000000,100.000000) scale(0.100000,-0.100000)"
fill="#000000" stroke="none">
<path d="M375 941 c-209 -60 -347 -257 -332 -471 9 -123 48 -208 134 -293 89
-90 175 -127 304 -133 130 -5 246 37 329 120 l45 45 5 -82 c4 -64 8 -82 20
-82 12 0 16 21 18 118 l3 118 -118 -3 c-97 -2 -118 -6 -118 -18 0 -12 17 -16
78 -18 42 -2 77 -7 77 -12 0 -5 -26 -30 -57 -54 -225 -177 -553 -90 -654 174
-30 77 -34 204 -8 278 64 186 226 297 419 288 209 -11 374 -165 396 -371 6
-56 18 -75 36 -57 18 18 -5 144 -41 216 -34 70 -113 154 -179 193 -102 60
-243 77 -357 44z"/>
<path d="M487 814 c-4 -4 -7 -63 -7 -131 0 -110 -2 -125 -20 -143 -11 -11 -20
-29 -20 -40 0 -11 9 -29 20 -40 25 -25 55 -25 80 0 16 16 36 20 107 22 70 2
88 6 88 18 0 12 -18 16 -88 18 -124 4 -126 6 -129 168 -3 118 -10 149 -31 128z"/>
</g>
</svg>
